<svg width="48" height="48" viewBox="0 0 48 48" fill="none" xmlns="http://www.w3.org/2000/svg">
<path d="M29.4009 12.5996C29.0345 12.9734 28.8292 13.4761 28.8292 13.9996C28.8292 14.5231 29.0345 15.0257 29.4009 15.3996L32.6009 18.5996C32.9748 18.966 33.4774 19.1713 34.0009 19.1713C34.5244 19.1713 35.0271 18.966 35.4009 18.5996L41.6129 12.3896C42.2529 11.7456 43.3389 11.9496 43.5789 12.8256C44.1832 15.0233 44.1491 17.3477 43.4805 19.5268C42.8119 21.7058 41.5366 23.6494 39.8037 25.13C38.0708 26.6107 35.9521 27.5672 33.6954 27.8877C31.4388 28.2082 29.1375 27.8793 27.0609 26.9396L11.2409 42.7596C10.4453 43.555 9.36626 44.0017 8.24123 44.0015C7.1162 44.0013 6.03732 43.5542 5.24193 42.7586C4.44655 41.9629 3.99981 40.8839 4 39.7589C4.00019 38.6338 4.44728 37.555 5.24293 36.7596L21.0629 20.9396C20.1232 18.863 19.7943 16.5617 20.1148 14.3051C20.4353 12.0484 21.3918 9.92967 22.8725 8.1968C24.3531 6.46393 26.2967 5.18859 28.4757 4.52002C30.6548 3.85145 32.9792 3.8173 35.1769 4.42157C36.0529 4.66157 36.2569 5.74557 35.6149 6.38957L29.4009 12.5996Z" stroke="#1A6DFF" stroke-width="3" stroke-linecap="round" stroke-linejoin="round"/>
</svg>
