<svg width="48" height="48" viewBox="0 0 48 48" fill="none" xmlns="http://www.w3.org/2000/svg">
<path d="M19.3426 8.2723C19.4528 7.11298 19.9913 6.03639 20.8528 5.25286C21.7144 4.46933 22.8371 4.03516 24.0016 4.03516C25.1662 4.03516 26.2889 4.46933 27.1504 5.25286C28.0119 6.03639 28.5504 7.11298 28.6606 8.2723C28.7268 9.02121 28.9725 9.74314 29.3769 10.377C29.7812 11.0108 30.3323 11.5379 30.9835 11.9137C31.6347 12.2894 32.3669 12.5027 33.118 12.5355C33.8691 12.5684 34.6171 12.4198 35.2986 12.1023C36.3568 11.6219 37.556 11.5523 38.6626 11.9073C39.7693 12.2622 40.7043 13.0162 41.2856 14.0225C41.867 15.0288 42.0532 16.2154 41.8079 17.3514C41.5626 18.4874 40.9034 19.4915 39.9586 20.1683C39.3434 20.6 38.8412 21.1735 38.4944 21.8404C38.1477 22.5072 37.9667 23.2477 37.9667 23.9993C37.9667 24.7509 38.1477 25.4914 38.4944 26.1583C38.8412 26.8251 39.3434 27.3986 39.9586 27.8303C40.9034 28.5071 41.5626 29.5112 41.8079 30.6472C42.0532 31.7832 41.867 32.9698 41.2856 33.9761C40.7043 34.9824 39.7693 35.7364 38.6626 36.0913C37.556 36.4463 36.3568 36.3767 35.2986 35.8963C34.6171 35.5788 33.8691 35.4302 33.118 35.4631C32.3669 35.4959 31.6347 35.7092 30.9835 36.0849C30.3323 36.4607 29.7812 36.9878 29.3769 37.6216C28.9725 38.2555 28.7268 38.9774 28.6606 39.7263C28.5504 40.8856 28.0119 41.9622 27.1504 42.7457C26.2889 43.5293 25.1662 43.9634 24.0016 43.9634C22.8371 43.9634 21.7144 43.5293 20.8528 42.7457C19.9913 41.9622 19.4528 40.8856 19.3426 39.7263C19.2765 38.9771 19.0308 38.2549 18.6263 37.6208C18.2219 36.9868 17.6706 36.4595 17.0191 36.0837C16.3676 35.708 15.6351 35.4947 14.8838 35.4621C14.1324 35.4295 13.3842 35.5784 12.7026 35.8963C11.6444 36.3767 10.4453 36.4463 9.33861 36.0913C8.23196 35.7364 7.29695 34.9824 6.71558 33.9761C6.1342 32.9698 5.94804 31.7832 6.19333 30.6472C6.43862 29.5112 7.09781 28.5071 8.04261 27.8303C8.65785 27.3986 9.16007 26.8251 9.50679 26.1583C9.8535 25.4914 10.0345 24.7509 10.0345 23.9993C10.0345 23.2477 9.8535 22.5072 9.50679 21.8404C9.16007 21.1735 8.65785 20.6 8.04261 20.1683C7.09914 19.4912 6.44111 18.4875 6.19641 17.3523C5.95171 16.217 6.13783 15.0314 6.71858 14.0257C7.29933 13.0201 8.23323 12.2663 9.33879 11.9108C10.4443 11.5553 11.6426 11.6236 12.7006 12.1023C13.3821 12.4198 14.1301 12.5684 14.8812 12.5355C15.6323 12.5027 16.3645 12.2894 17.0157 11.9137C17.6669 11.5379 18.218 11.0108 18.6223 10.377C19.0267 9.74314 19.2724 9.02121 19.3386 8.2723" stroke="#1A6DFF" stroke-width="3" stroke-linecap="round" stroke-linejoin="round"/>
<path d="M24 30C27.3137 30 30 27.3137 30 24C30 20.6863 27.3137 18 24 18C20.6863 18 18 20.6863 18 24C18 27.3137 20.6863 30 24 30Z" stroke="#1A6DFF" stroke-width="3" stroke-linecap="round" stroke-linejoin="round"/>
</svg>
